<?xml version="1.0" encoding="UTF-8" standalone="no"?>
<svg width="1103px" height="845px" viewBox="0 0 1103 845" version="1.1" xmlns="http://www.w3.org/2000/svg" xmlns:xlink="http://www.w3.org/1999/xlink" xmlns:sketch="http://www.bohemiancoding.com/sketch/ns">
    <!-- Generator: Sketch 3.1 (8751) - http://www.bohemiancoding.com/sketch -->
    <title>Map</title>
    <desc>Created with Sketch.</desc>
    <defs>
        <rect id="path-1" x="0" y="0" width="1101" height="800"></rect>
    </defs>
    <g id="Page-1" stroke="none" stroke-width="1" fill="none" fill-rule="evenodd" sketch:type="MSPage">
        <g id="Map" sketch:type="MSLayerGroup" transform="translate(2.000000, 0.000000)">
            <g id="Legend" transform="translate(0.000000, 818.000000)">
                <text id="1-mile" sketch:type="MSTextLayer" font-family="Helvetica" font-size="14" font-weight="normal" sketch:alignment="middle" fill="#000000">
                    <tspan x="29.8276367" y="26">1 mile</tspan>
                </text>
                <path d="M0,1 L100.162361,1" id="Line" stroke="#000000" stroke-width="4" stroke-linecap="square" sketch:type="MSShapeGroup"></path>
            </g>
            <mask id="mask-2" sketch:name="Water" fill="white">
                <use xlink:href="#path-1"></use>
            </mask>
            <use id="Water" fill="#8AB4FF" sketch:type="MSShapeGroup" xlink:href="#path-1"></use>
            <g id="Land" mask="url(#mask-2)" fill="#D3E5C7" sketch:type="MSShapeGroup">
                <g transform="translate(-117.272727, -106.909091)">
                    <path d="M1283.35071,105.330574 C1275.53007,108.218559 1266.19498,116.623007 1262.50037,124.102124 L1237.0929,175.535212 C1233.39821,183.014467 1225.40186,193.629675 1219.24427,199.234262 L1205.59369,211.6589 C1199.43085,217.268269 1188.06668,224.087917 1180.22495,226.88607 L1157.75337,234.904576 C1149.90545,237.704941 1136.88404,241.121141 1128.66065,242.536351 L1105.31477,246.554074 C1097.09523,247.968622 1083.7028,248.576629 1075.3924,247.911331 L1045.02247,245.480034 C1036.71634,244.815079 1023.37292,242.911084 1015.19898,241.223188 L969.539674,231.794666 C961.374744,230.10863 948.357934,226.56818 940.460623,223.885085 L878.833989,202.947567 C870.939003,200.265262 857.915919,196.750494 849.744994,195.096886 L823.856025,189.857553 C815.685603,188.204047 802.326494,187.500612 794.034071,188.284832 L789.997297,188.666592 C781.697509,189.451508 768.567919,192.270319 760.68234,194.9589 L751.39448,198.125587 C743.504064,200.815816 730.887851,205.662759 723.239238,208.941309 L704.857338,216.820644 C697.198043,220.103773 685.462186,226.647289 678.636588,231.441601 L668.582956,238.503289 C661.76093,243.295091 651.759699,252.24939 646.249441,258.497766 L642.142193,263.155193 C636.629759,269.406035 629.547851,280.704203 626.321574,288.396875 L622.121523,298.411396 C618.896471,306.101149 612.859572,318.172271 608.642426,325.364994 L595.895996,347.105181 C591.676749,354.301489 584.291193,365.606364 579.392124,372.366048 L564.914988,392.34145 C560.019399,399.096334 551.305022,409.385743 545.458129,415.316139 L524.287255,436.789368 C518.437118,442.723054 508.738242,452.124159 502.623111,457.78834 L495.645606,464.251301 C489.530967,469.915027 478.839246,478.082319 471.761708,482.495499 L473.443933,481.446552 C466.367859,485.858818 454.593784,492.460051 447.135411,496.196022 L444.202617,497.665087 C436.748895,501.398728 424.30222,506.615519 416.419375,509.311238 L413.71948,510.234529 C405.828941,512.93288 392.849437,516.617445 384.713215,518.467813 L381.328927,519.23748 C373.199749,521.086246 371.821637,526.893307 378.242983,532.201428 L371.236608,526.4097 C377.661466,531.720725 388.792505,539.29356 396.088207,543.318433 L400.846906,545.9437 C408.147207,549.97111 420.050062,556.391789 427.424763,560.280515 L430.280034,561.786117 C437.658278,565.676711 449.503222,572.184641 456.74124,576.324723 L452.048563,573.640554 C459.28444,577.77941 471.892423,581.558796 480.212608,582.082258 L474.701906,581.735554 C483.020602,582.258922 496.486345,581.992188 504.785561,581.139059 L505.460459,581.069682 C513.756506,580.216878 526.95557,577.569044 534.926778,575.159997 L536.300645,574.744788 C544.278396,572.333763 557.450349,571.260508 565.715519,572.346882 L559.845301,571.575301 C568.112936,572.661999 581.266957,575.584829 589.209672,578.098574 L592.493238,579.137771 C600.443097,581.653777 612.749235,587.057674 619.979227,591.207404 L629.292603,596.552914 C636.522837,600.702782 647.273282,608.735704 653.300571,614.491293 L662.868725,623.628134 C668.897726,629.38536 677.435384,639.732021 681.944695,646.748282 L684.384089,650.543856 C688.890455,657.555536 693.798332,669.873594 695.349482,678.074685 L694.710087,674.694138 C696.25974,682.887315 697.495079,696.28679 697.469297,704.62136 L697.429587,717.458536 C697.403803,725.793707 698.749287,739.169288 700.435631,747.337714 L702.466268,757.173845 C704.152244,765.340488 708.013687,778.240303 711.095335,785.997191 L712.307107,789.047368 C715.386833,796.799419 722.916187,807.599224 729.120839,813.166222 L726.953021,811.221191 C733.159262,816.789615 744.600439,823.462606 752.491701,826.120378 L750.650535,825.500274 C758.548917,828.160444 771.58342,828.981881 779.752805,827.337241 L779.537571,827.380571 C787.711929,825.734931 799.61389,820.188072 806.140291,814.976186 L809.89709,811.976063 C816.415008,806.770951 825.483778,796.94687 830.146575,790.042511 L838.996226,776.938541 C843.661789,770.030087 850.964074,758.668065 855.313575,751.548903 L860.891553,742.419001 C865.237813,735.305145 873.86369,725.101152 880.147899,719.636517 L888.914635,712.013122 C895.203361,706.54456 906.964011,700.984825 915.182289,699.595191 L929.924014,697.102503 C938.142512,695.712832 951.46894,695.731693 959.686431,697.144115 L967.440193,698.476832 C975.659024,699.889485 987.488391,705.391719 993.858062,710.763243 L1001.24277,716.990748 C1007.61413,722.363693 1018.07899,730.918935 1024.60621,736.091099 L1029.12897,739.674935 C1035.66088,744.850823 1046.97118,752.140272 1054.38241,755.951841 L1060.74551,759.224356 C1068.16069,763.037955 1078.79848,771.04645 1084.51096,777.117452 L1088.50725,781.364555 C1094.21737,787.43304 1102.76918,797.867482 1107.60188,804.661555 L1112.61174,811.704695 C1117.4473,818.502788 1126.03818,828.896986 1131.80403,834.924981 L1136.07683,839.392053 C1141.84089,845.41817 1151.34698,855.041528 1157.30024,860.877548 L1166.44445,869.841689 C1172.40176,875.681683 1182.30601,884.881073 1188.67731,890.262283 C1188.67731,890.262283 1219.65258,918.972707 1237.2183,919.447761 C1254.78401,919.922816 1313.33718,887.073696 1313.33718,887.073696 C1320.66681,883.09938 1326.66773,873.111151 1326.74043,864.786646 L1333.40311,101.889618 C1333.4759,93.5551354 1327.18919,89.1420301 1319.37437,92.0278628 L1283.35071,105.330574 Z" id="Path-2"></path>
                    <path d="M1175.95641,920.334597 C1205.424,925.750374 1158.76366,885.895288 1158.76366,885.895288 C1152.64291,880.330079 1143.31062,870.722708 1137.91759,864.4345 L1126.2491,850.829179 C1120.85688,844.541922 1112.06154,834.387236 1106.60998,828.154713 L1085.02144,803.473523 C1079.56727,797.238019 1069.61516,788.358481 1062.80399,783.648273 L1048.01089,773.418235 C1041.1947,768.704556 1031.02665,760.019429 1025.31568,754.035986 L1020.79153,749.29599 C1015.0735,743.305149 1005.0224,734.478696 998.337026,729.578083 L994.102188,726.473796 C987.418941,721.574739 975.391453,716.445186 967.220081,715.013472 L968.816929,715.293257 C960.653599,713.862953 947.437225,713.908725 939.271301,715.400247 L937.139314,715.789658 C928.985044,717.279051 916.069612,720.799186 908.290182,723.652727 L907.48383,723.948501 C899.705164,726.801761 889.055112,734.229767 883.688227,740.548889 L881.188301,743.492372 C875.825018,749.807253 867.652847,760.451496 862.944587,767.253461 L860.652594,770.564675 C855.940152,777.372682 848.484888,788.540191 844.003052,795.5045 L843.625928,796.090512 C839.143082,803.056391 831.471006,814.080614 826.502266,820.697294 L824.015226,824.009188 C819.040934,830.63326 808.518208,837.743837 800.521789,839.888497 L801.663056,839.582406 C793.66228,841.728235 780.492358,844.16206 772.259943,845.017185 L771.635366,845.082061 C763.397251,845.937778 750.613172,843.843932 743.082397,840.405813 L738.688219,838.399684 C731.156966,834.961347 719.916799,827.849256 713.573007,822.506302 L709.23057,818.848955 C702.891075,813.50962 695.423171,802.879493 692.551416,795.108274 L689.039354,785.604331 C686.167207,777.83205 682.800945,764.894194 681.520482,756.706079 L678.692619,738.622882 C677.412208,730.435099 676.549624,717.084316 676.766006,708.802237 L677.059201,697.580135 C677.275573,689.298431 674.732542,676.448316 671.372131,668.862681 L666.253472,657.308063 C662.896219,649.729555 655.415839,638.845573 649.543263,632.995704 L636.38637,619.889681 C630.51483,614.040843 619.412201,607.111055 611.577814,604.408068 L590.050971,596.980968 C582.221124,594.279547 569.176382,591.667368 560.897491,591.145417 L565.231949,591.418687 C556.960773,590.897223 543.610915,591.479627 535.426653,592.717642 L522.855606,594.619236 C514.665771,595.858093 501.306284,596.862386 493.030235,596.862386 L470.383324,596.862386 C462.101062,596.862386 449.120856,594.466557 441.37194,591.50378 L437.39597,589.983578 C429.655688,587.024101 417.738473,580.989338 410.773641,576.501669 L393.825734,565.581575 C386.862911,561.095199 375.561575,553.823372 368.593273,549.345778 L353.768012,539.819569 C346.795332,535.339161 335.206415,528.585094 327.865242,524.724366 L320.672311,520.941598 C313.339285,517.085155 301.592954,510.578246 294.431625,506.405376 L280.088622,498.047781 C272.929316,493.87609 262.896844,485.278242 257.679518,478.842779 L248.927007,468.046739 C243.710106,461.6118 235.12247,451.295137 229.734452,444.990332 L214.813922,427.53103 C209.431067,421.232267 200.699062,411.029201 195.304441,404.734843 L189.079163,397.471288 C183.687229,391.180065 175.361679,380.640597 170.495561,373.947281 L168.241215,370.846441 C163.369709,364.145713 160.946297,352.172705 162.828486,344.103492 L160.24706,355.170433 C162.129198,347.101438 166.842209,334.642544 170.765335,327.358551 L167.771819,332.916554 C171.698764,325.625471 176.746906,313.261516 179.046039,305.304768 L175.497145,317.586637 C177.796781,309.628152 177.316196,296.875737 174.428009,289.114822 L168.827476,274.065498 C165.937373,266.299434 158.058929,256.191404 151.240519,251.495496 L155.641473,254.526478 C148.818568,249.827474 137.795832,242.13762 131.035088,237.360307 L128.240154,235.385336 C121.473328,230.603725 109.877523,223.941735 102.34551,220.507784 L93.0628869,216.275707 C85.5284961,212.840673 73.0939121,207.831456 65.277375,205.083057 L55.5088016,201.648295 C47.6976779,198.901799 35.06013,194.358039 27.28979,191.502368 L17.3860774,187.862663 C9.61227139,185.005719 3.31035645,189.413727 3.31035645,197.689789 L3.31035645,899.918744 C3.31035645,908.20306 10.0264829,914.919316 18.3102007,914.920502 C18.3102007,914.920502 1146.48882,914.91882 1175.95641,920.334597 Z" id="Path-2"></path>
                    <path d="M1236.90938,103.995267 C1245.18943,103.87229 1248.06172,109.282465 1243.32129,116.08432 L1229.41983,136.030953 C1224.68098,142.83053 1214.97733,151.611266 1207.73209,155.651087 L1210.41551,154.154857 C1203.17656,158.19118 1194.12657,167.381105 1190.2042,174.676666 L1193.7839,168.018465 C1189.86046,175.316024 1183.37755,187.078755 1179.29931,194.299446 L1185.51906,183.287138 C1181.44288,190.504164 1172.59173,200.126232 1165.7355,204.788115 L1167.01032,203.921306 C1160.16033,208.578942 1148.25643,214.516358 1140.41377,217.185766 L1133.84289,219.4223 C1126.004,222.090423 1112.95549,224.87841 1104.71456,225.647916 L1100.70286,226.022514 C1092.45461,226.792704 1079.07758,226.739403 1070.83962,225.905003 L1054.1726,224.216847 C1045.92783,223.381757 1032.62304,221.57427 1024.46561,220.181437 L994.928582,215.138161 C986.76663,213.744555 973.662671,210.908799 965.645036,208.800368 L956.539439,206.405832 C948.528535,204.299171 936.653034,198.584086 930.011588,193.638466 L935.365391,197.625229 C928.725367,192.680668 916.896028,186.807468 908.933254,184.504014 L910.107295,184.843638 C902.149252,182.541552 889.298354,178.61499 881.418211,176.077989 L875.086304,174.03944 C867.199803,171.500391 854.088468,169.16523 845.820014,168.824483 L838.215776,168.511108 C829.938951,168.170015 816.518598,167.893505 808.237274,167.893505 L803.523362,167.893505 C795.243518,167.893505 782.04723,169.651482 774.055152,171.818289 L763.337328,174.724097 C755.34233,176.891695 742.747206,181.413739 735.197157,184.828061 L724.602975,189.619018 C717.056586,193.031685 704.760813,198.408399 697.115663,201.638356 L687.850529,205.552731 C680.216095,208.77816 669.035398,215.891997 662.878112,221.441596 L651.83334,231.396318 C645.67589,236.946067 636.963689,247.041146 632.381809,253.932705 L631.238587,255.652214 C626.653253,262.548968 619.001651,273.587972 614.150933,280.304809 L602.207513,296.842982 C597.355596,303.561479 589.447353,314.417051 584.536958,321.099104 L568.021184,343.573727 C563.113923,350.251516 555.709581,361.441333 551.482342,368.568199 L540.63277,386.859915 C536.405881,393.986192 528.26535,404.548772 522.457095,410.445286 L508.071699,425.049276 C502.26044,430.94884 492.630331,440.316479 486.583216,445.952943 L483.841299,448.508659 C477.784797,454.153871 467.433639,462.679176 460.731637,467.542988 L450.193514,475.19077 C443.486902,480.057927 431.720594,486.240697 423.909043,489.001676 L429.736779,486.941873 C421.926878,489.702269 409.178131,493.944227 401.279089,496.411107 L395.686269,498.157751 C387.779422,500.627069 374.652191,502.628846 366.376601,502.628846 L363.751783,502.628846 C355.471348,502.628846 342.407414,500.427787 334.57971,497.715083 L324.34422,494.167956 C316.513364,491.45416 304.558666,485.5671 297.62986,481.010427 L294.995469,479.277941 C288.072392,474.725035 278.437038,465.664024 273.466355,459.028997 L273.965832,459.695715 C268.998708,453.065437 263.728745,441.092576 262.195257,432.954736 L261.300473,428.206337 C259.766889,420.06798 257.004093,406.927974 255.129908,398.858649 L254.452795,395.943333 C252.578471,387.873409 247.05812,375.926754 242.135097,369.276416 L234.104733,358.428479 C229.176181,351.77067 222.603565,340.165938 219.429358,332.52056 L214.321297,320.217313 C211.144863,312.566573 206.30029,300.038041 203.506527,292.250463 L201.934141,287.867456 C199.137742,280.072531 193.485223,267.95093 189.308385,260.792247 L179.75879,244.425191 C175.582176,237.266891 166.540337,227.857465 159.556797,223.404518 L147.192114,215.520369 C140.211475,211.069272 130.056897,202.484041 124.496619,196.328544 L119.462195,190.755193 C113.908458,184.606938 104.262585,175.3048 97.9139272,169.975258 L84.4585676,158.679814 C78.1115252,153.351628 68.3233771,144.188075 62.5833649,138.19913 L57.1260643,132.505158 C51.3917659,126.522175 53.4652976,121.57217 61.7355469,121.449337 L1236.90938,103.995267 Z" id="Path-3"></path>
                    <rect id="Rectangle-3" x="89" y="0" width="1171" height="130"></rect>
                    <path d="M230.89641,416.632782 C236.419291,422.814157 240.477907,421.126551 239.960468,412.845573 L240.223403,417.053532 C239.706463,408.780539 236.590832,395.927365 233.26492,388.346241 L231.324263,383.922685 C227.998139,376.341079 220.999611,365.033012 215.695772,358.669201 L218.77473,362.363489 C213.469477,355.997981 205.274881,345.35441 200.483543,338.607244 L198.0853,335.230037 C193.288609,328.475334 186.410688,329.018192 182.727274,336.434009 L186.521376,328.795344 C182.836063,336.214982 179.848527,348.945061 179.848527,357.238069 L179.848527,347.056645 C179.848527,355.345489 184.539122,366.870666 190.328494,372.802156 L196.474767,379.099308 C202.262693,385.029316 211.426926,394.84195 216.954796,401.028908 L230.89641,416.632782 Z" id="Path-4"></path>
                </g>
            </g>
            <g id="Grid" mask="url(#mask-2)" stroke-linecap="square" stroke="#000000" sketch:type="MSShapeGroup">
                <g transform="translate(-362.727273, -39.909091)">
                    <path d="M263.181818,839.454545 L1534.14584,839.454545" id="Line"></path>
                    <path d="M263.181818,740.363636 L1603.18182,740.363636" id="Line-16"></path>
                    <path d="M263.181818,640.363636 L1654.09091,640.363636" id="Line-17"></path>
                    <path d="M263.181818,540.363636 L1611.36364,540.363636" id="Line-18"></path>
                    <path d="M261.363636,440.363636 L1595,440.363636" id="Line-19"></path>
                    <path d="M260.454545,340.363636 L1620.45455,340.363636" id="Line-20"></path>
                    <path d="M264.090909,240.363636 L1606.81818,240.363636" id="Line-21"></path>
                    <path d="M263.181818,140.363636 L1588.63636,140.363636" id="Line-22"></path>
                    <path d="M0.454545455,40.3636364 L1463.22729,40.3636364" id="Line-23"></path>
                    <path d="M363.181818,840.818182 L363.181818,3.40909084" id="Line-3"></path>
                    <path d="M463.181818,841.727273 L463.181818,5.3703928" id="Line-4"></path>
                    <path d="M563.181818,839 L563.181818,13.3991795" id="Line-5"></path>
                    <path d="M663.181818,845.818182 L663.181818,15.3792035" id="Line-6"></path>
                    <path d="M763.181818,839.909091 L763.181818,15.3478978" id="Line-7"></path>
                    <path d="M863.181818,840.818182 L863.181818,0.387347308" id="Line-8"></path>
                    <path d="M963.181818,840.818182 L963.181818,7.40908965" id="Line-9"></path>
                    <path d="M1063.18182,857.636364 L1063.18182,11.4090909" id="Line-10"></path>
                    <path d="M1163.18182,839 L1163.18182,16.4090909" id="Line-11"></path>
                    <path d="M1263.18182,839.909091 L1263.18182,27.4090909" id="Line-12"></path>
                    <path d="M1363.18182,835.363636 L1363.18182,11.4090909" id="Line-13"></path>
                    <path d="M1463.18182,839 L1463.18182,23.4090909" id="Line-14"></path>
                </g>
            </g>
            <g id="Listening-stations" mask="url(#mask-2)" stroke="#979797" fill="#D0011B" sketch:type="MSShapeGroup">
                <g transform="translate(214.545455, 105.000000)">
                    <ellipse id="Pittsburgh-Zoo" cx="515.909091" cy="6.81818182" rx="6.81818182" ry="6.81818182"></ellipse>
                    <ellipse id="The-Waterfront" cx="572.272727" cy="526.818182" rx="6.81818182" ry="6.81818182"></ellipse>
                    <ellipse id="Carnegie-Science-Center" cx="6.81818182" cy="285.909091" rx="6.81818182" ry="6.81818182"></ellipse>
                    <ellipse id="Cathedral-of-Learning" cx="351.372703" cy="295.918188" rx="6.81818182" ry="6.81818182"></ellipse>
                </g>
            </g>
        </g>
    </g>
</svg>